<?xml version="1.0" standalone="no"?>
<!DOCTYPE svg PUBLIC "-//W3C//DTD SVG 20010904//EN"
 "http://www.w3.org/TR/2001/REC-SVG-20010904/DTD/svg10.dtd">
<svg version="1.0" xmlns="http://www.w3.org/2000/svg" width="500.000000pt" height="500.000000pt" viewBox="0 0 500.000000 500.000000" preserveAspectRatio="xMidYMid meet">

<g transform="translate(0.000000,500.000000) scale(0.100000,-0.100000)" fill="#000000" stroke="none">
<path d="M0 2500 l0 -2500 2500 0 2500 0 0 2500 0 2500 -2500 0 -2500 0 0
-2500z m2295 1756 c41 -18 65 -61 65 -119 0 -43 -1 -45 -37 -51 -64 -10 -73
-8 -73 17 0 13 -7 32 -15 43 -15 19 -15 19 -34 -4 -11 -13 -23 -43 -27 -68 -7
-52 1 -147 17 -175 11 -22 39 -25 57 -7 18 18 15 28 -8 28 -19 0 -21 5 -18 57
l3 56 52 15 c47 13 55 13 77 -1 43 -29 46 -128 6 -195 -41 -67 -140 -98 -208
-65 -58 28 -84 86 -90 198 -6 112 12 176 64 229 50 52 109 67 169 42z m767
-46 c20 -6 51 -24 68 -41 25 -26 30 -38 30 -80 0 -28 -7 -64 -16 -80 -14 -28
-19 -30 -51 -24 -47 8 -83 23 -83 32 0 5 9 22 20 38 24 36 25 51 5 59 -36 13
-115 -90 -135 -177 -19 -89 27 -115 101 -56 43 34 51 33 69 -11 15 -36 6 -50
-59 -92 -34 -21 -57 -28 -95 -28 -119 0 -176 94 -142 231 27 103 101 194 186
228 33 13 57 13 102 1z m-1185 -92 c10 -29 47 -117 82 -197 35 -81 64 -156 65
-169 1 -19 -9 -27 -47 -44 l-48 -21 -95 94 -95 94 30 -70 c16 -38 36 -87 45
-107 23 -54 21 -61 -34 -85 l-50 -22 -14 27 c-17 33 -142 367 -151 403 -6 22
-1 27 43 48 59 28 69 24 155 -58 43 -41 56 -49 49 -31 -6 14 -19 49 -31 78
-28 70 -27 79 12 96 55 25 65 21 84 -36z m1673 -138 c47 -24 58 -54 40 -113
-16 -56 -139 -359 -152 -374 -7 -8 -22 -3 -59 19 -51 32 -59 51 -34 84 22 30
18 42 -21 59 -48 20 -67 19 -89 -5 -10 -11 -22 -20 -27 -20 -14 0 -98 60 -98
70 0 26 354 300 387 300 7 0 32 -9 53 -20z m-2059 -155 c43 -66 82 -128 85
-137 4 -10 10 -18 15 -18 5 0 9 -7 9 -15 0 -8 4 -15 8 -15 15 0 75 -91 66 -99
-5 -4 -28 -22 -51 -39 l-41 -32 -29 37 c-65 83 -93 132 -87 150 4 13 3 14 -4
5 -12 -18 -115 139 -106 162 3 9 3 28 0 42 -6 21 -10 24 -19 15 -9 -9 -8 -16
1 -32 20 -32 7 -34 -13 -3 l-18 28 44 37 c24 21 48 37 53 36 5 -2 44 -57 87
-122z m-257 -94 c3 -4 11 -53 17 -107 7 -55 13 -100 13 -101 1 -1 50 -7 109
-14 l107 -12 0 -58 c0 -32 -3 -60 -7 -62 -5 -3 -44 1 -88 9 -145 24 -145 23
-68 -49 l67 -64 -42 -44 -41 -44 -173 172 -173 173 43 42 43 43 43 -47 c48
-55 60 -59 52 -20 -3 15 -7 61 -8 102 l-3 75 45 6 c25 3 48 7 52 7 4 1 9 -2
12 -7z m2663 -45 c60 -44 103 -108 103 -152 -1 -65 -82 -158 -175 -200 -123
-56 -209 -42 -298 49 -32 33 -56 64 -55 68 5 13 342 278 354 279 7 0 39 -20
71 -44z m-1151 -245 c185 -46 353 -141 489 -276 128 -126 217 -275 272 -451
26 -84 27 -100 28 -284 0 -212 -8 -262 -66 -404 -81 -199 -249 -393 -436 -503
-108 -64 -244 -115 -353 -132 -84 -14 -276 -14 -360 0 -321 52 -627 287 -770
592 -71 152 -85 225 -85 447 1 184 2 200 29 285 31 103 85 214 146 306 56 83
189 213 279 273 120 80 292 145 446 170 70 11 301 -3 381 -23z m-1742 -141
c74 -49 141 -97 150 -106 9 -8 16 -13 16 -9 0 3 23 -6 50 -21 28 -15 50 -31
50 -36 0 -9 -31 -71 -49 -97 -8 -12 -27 -4 -103 44 -148 93 -308 205 -308 216
0 12 50 99 56 99 2 0 65 -40 138 -90z m3179 23 c13 -21 27 -44 31 -51 5 -8
-42 -36 -161 -95 -92 -45 -186 -95 -208 -110 -22 -15 -45 -27 -52 -27 -16 0
-67 86 -60 103 6 16 161 98 178 94 8 -2 10 -2 5 1 -10 5 210 121 231 121 7 1
23 -16 36 -36z m137 -325 c53 -109 60 -150 33 -180 -24 -27 -76 -23 -219 17
-69 20 -130 35 -136 33 -5 -2 6 -28 26 -57 20 -29 36 -59 36 -66 0 -17 -101
-45 -117 -32 -7 5 -31 45 -53 89 -65 130 -51 208 38 208 30 0 153 -30 263 -65
21 -7 21 -5 -10 50 -18 31 -30 62 -28 68 4 13 63 35 95 36 20 1 31 -14 72
-101z m-3444 67 c14 -9 33 -30 42 -46 11 -19 22 -27 32 -23 37 16 61 15 104
-4 53 -24 86 -70 86 -122 0 -33 -55 -216 -69 -232 -7 -8 -397 155 -415 172
-11 11 20 173 40 212 25 47 64 71 111 65 24 -2 54 -12 69 -22z m295 -973 l16
-37 -86 -88 -86 -88 122 7 122 7 15 -38 c9 -21 15 -39 14 -40 -2 -1 -85 -5
-186 -7 -173 -5 -183 -4 -193 14 -6 10 -9 26 -7 35 3 14 236 270 248 272 3 0
12 -16 21 -37z m2729 -22 c0 -5 -9 -30 -20 -56 -11 -26 -19 -48 -18 -49 9 -8
48 -25 55 -25 5 0 17 23 27 50 19 54 22 56 60 39 l25 -12 -20 -50 c-21 -52
-19 -60 19 -72 20 -6 25 -1 44 44 23 54 30 58 65 38 l22 -12 -36 -85 c-19 -47
-37 -87 -39 -89 -3 -3 -304 116 -313 125 -4 4 20 71 51 141 18 40 19 41 48 31
17 -5 30 -14 30 -18z m-69 -406 l139 -95 -22 -30 c-12 -16 -24 -29 -26 -29 -2
0 -40 25 -83 55 -44 31 -79 53 -79 51 0 -2 23 -43 52 -91 48 -81 50 -87 34
-103 -15 -16 -21 -15 -94 12 -121 44 -123 43 -48 -30 69 -66 69 -67 53 -93 -9
-14 -22 -27 -29 -29 -7 -1 -66 51 -132 116 l-118 119 29 33 29 32 88 -31 c49
-17 93 -30 98 -29 4 2 -14 42 -41 91 l-49 87 25 30 c13 17 27 30 30 30 2 0 67
-43 144 -96z m-2431 11 c29 -31 37 -20 -125 -149 l-120 -95 -23 26 c-13 14
-21 30 -20 35 4 11 248 206 259 207 3 1 16 -10 29 -24z m192 -202 c57 -44 72
-65 87 -119 20 -75 -20 -158 -94 -194 -50 -24 -83 -25 -132 -5 -40 17 -122 75
-123 87 0 8 202 268 209 268 2 0 26 -17 53 -37z m1837 -233 c72 -52 131 -98
131 -103 0 -4 -15 -15 -34 -24 -32 -15 -35 -15 -63 5 l-29 20 -56 -34 c-55
-34 -56 -35 -48 -70 8 -33 6 -37 -23 -55 -18 -10 -35 -19 -38 -19 -3 0 -19 81
-36 181 l-30 181 31 19 c25 15 34 16 48 6 10 -6 76 -55 147 -107z m-1452 -2
c85 -34 96 -47 70 -82 -12 -16 -15 -16 -61 4 -52 22 -61 20 -71 -20 -6 -23 -2
-27 44 -44 28 -10 51 -20 51 -22 0 -3 -22 -56 -26 -62 -1 -2 -15 3 -31 11 -60
31 -71 30 -88 -2 -15 -31 -15 -31 18 -45 19 -7 44 -17 56 -21 17 -5 20 -12 15
-28 -14 -46 -16 -46 -107 -10 -79 32 -88 38 -83 57 10 39 118 296 125 296 3 0
43 -14 88 -32z m945 -58 c47 -14 52 -22 33 -59 -15 -30 -15 -30 -50 -16 -64
27 -115 -14 -115 -93 0 -37 6 -50 35 -79 30 -30 40 -35 68 -29 34 6 67 38 67
63 0 12 -8 14 -39 9 -39 -6 -51 3 -51 39 0 18 138 51 153 36 20 -20 14 -116
-9 -147 -40 -54 -70 -69 -138 -69 -53 0 -68 4 -99 28 -116 88 -93 265 40 312
47 17 58 18 105 5z m-505 -41 c66 -25 113 -95 113 -169 0 -56 -20 -99 -63
-137 -85 -74 -212 -47 -265 57 -72 139 71 304 215 249z"></path>
<path d="M3090 4069 c0 -5 5 -7 10 -4 6 3 10 8 10 11 0 2 -4 4 -10 4 -5 0 -10
-5 -10 -11z"></path>
<path d="M3389 3813 c-13 -16 -12 -17 4 -4 16 13 21 21 13 21 -2 0 -10 -8 -17
-17z"></path>
<path d="M3407 3799 c-20 -17 -37 -34 -37 -39 0 -12 32 -22 41 -13 9 9 41 83
36 83 -1 0 -19 -14 -40 -31z"></path>
<path d="M3412 3607 c-7 -8 -8 -24 -3 -43 7 -27 8 -28 15 -7 19 58 13 81 -12
50z"></path>
<path d="M1370 3802 c0 -5 7 -15 15 -22 8 -7 15 -8 15 -2 0 5 -7 15 -15 22 -8
7 -15 8 -15 2z"></path>
<path d="M1410 3741 c5 -11 15 -23 21 -27 6 -3 3 5 -6 20 -20 30 -30 35 -15 7z"></path>
<path d="M3750 3535 c-36 -30 -70 -55 -75 -55 -6 0 -16 -9 -22 -20 -11 -16
-10 -21 6 -30 52 -27 163 14 201 74 l22 37 -23 25 c-12 13 -27 24 -33 23 -6 0
-40 -24 -76 -54z"></path>
<path d="M2219 3197 c-166 -50 -235 -127 -255 -284 -5 -40 -11 -53 -23 -53 -9
0 -27 -7 -40 -16 -22 -16 -23 -21 -17 -85 7 -70 -1 -101 -33 -126 -14 -11 -11
-12 17 -13 48 0 89 25 111 68 11 20 20 31 21 25 0 -7 6 -13 13 -13 6 0 28 -28
47 -61 38 -66 79 -104 153 -140 l47 -23 0 -57 c0 -84 26 -207 52 -246 23 -34
24 -35 80 -29 56 6 57 5 63 -25 6 -26 2 -34 -37 -68 -43 -39 -43 -39 -69 -20
-67 47 -173 46 -241 -4 -40 -29 -80 -99 -80 -140 0 -17 11 -63 24 -102 21 -63
27 -72 72 -100 135 -83 316 17 316 176 0 22 5 29 31 34 22 5 36 2 50 -11 37
-33 109 -12 124 36 3 10 15 20 25 23 26 7 25 26 -1 35 -19 7 -10 21 96 158 64
82 120 150 124 152 5 1 14 -4 21 -13 11 -13 10 -19 -7 -38 -51 -55 -70 -151
-44 -218 27 -71 110 -128 187 -129 87 0 152 39 189 114 32 65 32 118 -1 185
-37 74 -88 105 -174 106 -36 0 -75 -4 -87 -8 -17 -6 -24 -3 -32 11 -10 18 -5
21 55 36 68 17 144 51 156 69 7 12 5 25 -18 120 -10 42 -21 66 -28 63 -6 -2
-61 -24 -122 -49 l-110 -44 -52 51 c-29 28 -54 61 -57 74 -6 35 -14 42 -48 42
-42 0 -50 -7 -76 -57 -40 -80 -25 -95 52 -54 l55 29 37 -38 c23 -23 33 -40 26
-44 -14 -9 -14 -22 2 -38 7 -7 18 -25 24 -40 13 -30 10 -34 -43 -61 -18 -9
-91 -66 -163 -127 -72 -60 -132 -110 -135 -110 -2 0 -6 9 -9 19 -4 15 5 23 43
39 l47 20 2 59 c1 51 -24 152 -62 243 -1 3 19 25 46 49 28 26 60 70 79 109 30
60 33 76 36 171 4 150 -19 220 -97 304 -57 61 -103 80 -201 84 -67 2 -101 -2
-161 -20z m589 -919 c2 -13 -127 -199 -185 -268 -3 -3 -13 5 -23 18 -20 24
-46 27 -102 11 -40 -11 -48 -28 -23 -53 15 -15 21 -56 8 -56 -5 0 -17 -3 -29
-6 -17 -4 -25 2 -41 33 l-20 39 191 151 c105 84 198 151 206 150 8 -1 16 -10
18 -19z"></path>
<path d="M828 3299 c-2 -7 6 -22 19 -33 33 -25 37 -16 9 19 -17 21 -24 25 -28
14z"></path>
<path d="M909 3232 c14 -11 38 -27 55 -37 l31 -17 -24 20 c-14 11 -38 27 -55
37 l-31 17 24 -20z"></path>
<path d="M4115 3335 l-30 -13 38 -1 c20 -1 37 3 37 8 0 17 -15 19 -45 6z"></path>
<path d="M4020 3285 c-25 -13 -41 -24 -37 -25 11 0 87 39 87 45 0 7 0 7 -50
-20z"></path>
<path d="M786 2934 c-13 -34 -6 -61 19 -72 35 -16 35 -17 35 26 0 53 -39 86
-54 46z"></path>
<path d="M950 2861 c-16 -32 -12 -51 16 -61 38 -15 44 -13 44 16 0 33 -17 64
-35 64 -8 0 -19 -9 -25 -19z"></path>
<path d="M1497 1334 c-62 -78 -66 -99 -22 -110 64 -16 125 32 125 101 0 30 -6
47 -22 62 l-23 21 -58 -74z"></path>
<path d="M3295 1219 c15 -78 18 -81 55 -51 l23 18 -43 34 -42 34 7 -35z"></path>
<path d="M2312 1063 c-21 -8 -42 -60 -42 -103 0 -107 141 -126 169 -23 20 72
-16 134 -78 132 -20 0 -42 -3 -49 -6z"></path>
</g>
</svg>
